<svg xmlns="http://www.w3.org/2000/svg" version="1.1" xmlns:xlink="http://www.w3.org/1999/xlink" viewBox="0 0 34 119" width="34" height="119">
<defs>
<linearGradient id="linearGradient5517-7" y2="306.61" xlink:href="#linearGradient5447-4" gradientUnits="userSpaceOnUse" x2="249.18" gradientTransform="matrix(-0.04836197,0.0888881,-0.07495829,-0.05133333,49.35273,1043.436)" y1="307.66" x1="258.59"/>
<linearGradient id="linearGradient5447-4">
<stop stop-color="#fdf5be" offset="0"/>
<stop stop-color="#e7ea77" stop-opacity="0" offset="1"/>
</linearGradient>
<linearGradient id="linearGradient5524-5" y2="307.12" xlink:href="#linearGradient5447-4" gradientUnits="userSpaceOnUse" x2="246.98" gradientTransform="matrix(0.10087431,0.00746761,-0.01586469,0.08948769,-6.6863752,1011.9673)" y1="306.38" x1="255.9"/>
<radialGradient id="radialGradient5464" gradientUnits="userSpaceOnUse" cy="9.2623" cx="-117.8" gradientTransform="matrix(0.134865,-0.04970215,0.04429152,0.11979254,21.187447,1038.075)" r="36.308">
<stop stop-color="#897e31" offset="0"/>
<stop stop-color="#958935" stop-opacity="0" offset="1"/>
</radialGradient>
<linearGradient id="linearGradient3696-9" y2="1330" gradientUnits="userSpaceOnUse" x2="2670" gradientTransform="matrix(1.0776286,0,0,1.0776286,-2873.464,-1426.3532)" y1="1330" x1="2670">
<stop stop-color="#ffce00" offset="0"/>
<stop stop-color="#ffeb06" offset="1"/>
</linearGradient>
<clipPath id="clipPath6154">
<path fill="none" d="m3150,162-17,184c42.4,19,120,19.5,158,0.5l-32-187c-30.6,8.64-66.7,10.1-110,2.5z" stroke="#000"/>
</clipPath>
<clipPath id="clipPath6158">
<path fill="none" d="m3150,162-17,184c42.4,19,120,19.5,158,0.5l-32-187c-34.5,8.83-70.9,9.88-110,2.5z" stroke="#000"/>
</clipPath>
<clipPath id="clipPath6128">
<path fill="none" d="m3150,162-17,184c42.4,19,120,19.5,158,0.5l-32-187z" stroke="#000"/>
</clipPath>
<clipPath id="clipPath6138">
<path stroke-linejoin="miter" d="m3130,314c53.9,20.6,106,17.4,156,0.8l11.6,39.2-39.6,21.2-65.6,6.8-54-5.2-21.2-17.2,1.2-24.8z" clip-path="url(#clipPath6128)" stroke="#000" stroke-linecap="butt" stroke-miterlimit="4" stroke-dasharray="none" stroke-width="1" fill="none"/>
</clipPath>
<clipPath id="clipPath6206">
<path fill="none" d="m-552,1830-44.7,484c112,50,317,51.3,417,1.32l-84.2-492c-89,24.7-186,24.5-288,6.58z" stroke="#000"/>
</clipPath>
<clipPath id="clipPath13802-2">
<path opacity="0.52845525" fill="#0a32ff" d="m-1300,29300,398,0,0,902-389,0c-213,3.5-193-902-8.84-902z"/>
</clipPath>
<linearGradient id="linearGradient4548" y2="689.27" gradientUnits="userSpaceOnUse" x2="561.45" y1="671.29" x1="546.89">
<stop stop-color="#dcb727" offset="0"/>
<stop stop-color="#dcb727" offset="0.175"/>
<stop stop-color="#fcda68" offset="0.23154"/>
<stop stop-color="#fcda68" offset="0.32491"/>
<stop stop-color="#dcb727" offset="0.36835"/>
<stop stop-color="#dcb727" offset="0.49539"/>
<stop stop-color="#fcda68" offset="0.58472"/>
<stop stop-color="#fcda68" offset="0.6668"/>
<stop stop-color="#dcb727" offset="0.7368"/>
<stop stop-color="#dcb727" offset="1"/>
</linearGradient>
</defs>
<g style="letter-spacing:0px;word-spacing:0px;" font-weight="normal" fill-opacity="0.21989531" transform="matrix(1.1606746,0,0,1.2620159,-0.1296137,-0.1923051)" line-height="125%" font-size="17.71132851px" font-style="normal" font-family="Arial Black" fill="#F00">
<path fill-opacity="0.21989531" fill="#F00" d="m0.50948,0.15238,4.3154,0,2.2485,3.9003,2.1793-3.9003,4.2722,0-3.9435,6.1402,4.3154,6.538-4.4019,0-2.4993-4.0733-2.508,4.0733-4.3759,0l4.3757-6.6076-3.9781-6.071"/>
</g>
<text style="letter-spacing:0px;text-anchor:middle;word-spacing:0px;text-align:center;" font-weight="normal" xml:space="preserve" font-size="8.50735664px" font-style="normal" line-height="125%" font-stretch="normal" font-variant="normal" y="3.4984121" x="7.7314205" font-family="Sans" fill="#ff0000"><tspan y="3.4984121" x="7.7314205" dy="3.2830951">No</tspan><tspan y="14.132608" x="7.731421">Flair</tspan></text>
<g transform="translate(0,-1019.3622)">
<path fill="#605924" d="m14.02,1039.4c-1.3515,0.1205-3.344,0.4854-4.6238,0.8494-1.6526,0.4699-3.7017,1.2809-4.4182,1.7716,5.2428-0.4993,6.0259-0.9902,9.042-2.621z"/>
<path fill="#d8c95a" d="m14,1039.4c-3.2848,1.4311-5.9146,1.9285-8.9893,2.6558,0.3546,2.7624,1.6107,4.3508,4.811,4.0818,0.3373,1.3247,1.2538,2.8287,0.92961,4.0067-0.41975,1.3083-1.48,1.2883-1.567,1.4623-0.48619,0.9721,2.4997,0.9403,4.3362,0.185,1.0269-0.4224,2.8983-1.3849,2.3953-1.6756-0.49788-0.1894-2.5774-0.1628-2.8229-0.362-0.57102-1.177-1.2335-3.4654-1.2232-3.8728,2.7808-0.6407,3.5881-3.9495,2.1304-6.4812z"/>
<path fill="#958935" d="m11.706,1050.5c0.0016-0.3554-0.67453-2.2336-0.65295-3.472,0.01359-0.7818,0.77859-1.0749,0.89838-1.2684-2.417-0.178-6.3895-0.5527-5.1193-4.2245l-1.79,0.4618c0.28188,2.6212,1.2818,4.2871,4.7326,4.108l0.99952,2.9496s0.13007,0.868-0.08006,1.196c-0.15836,0.2472-0.3162,0.5015-0.41769,0.6726-0.18552,0.3129-1.0516,0.5977-1.0516,0.5977l0.14679,0.2053z"/>
<path fill="#a4962c" d="m11.859,1045.8c3.0175-0.4465,3.6324-4.7231,2.159-6.4767,1.447,4.9161-0.94769,5.6148-2.159,6.4767z"/>
<path fill="#a4962c" d="m11.811,1040.2c-1.6855,1.0926-3.9709,1.6837-6.5628,1.8264-0.07075,0.6452,0.1642,1.3329,0.55782,2.0426-0.51192-0.4816-0.86525-1.2861-0.82237-2.1348,2.4972-0.6149,5.1179-1.1377,6.8273-1.7342z"/>
<path fill="#a4962c" d="m15.219,1050.7c-1.9132,1.0832-3.2584,1.3205-3.5483-0.1627-2.2499,1.2081-2.1336,0.9746-2.3665,0.9999-0.48562,0.053-0.018356,0.6724,0.45701,0.7647,1.7513,0.3398,4.5248-0.4532,5.4578-1.6019z"/>
<path fill="#8d084f" d="m10.474,1040.7c0.18418-0.4344,2.2972-2.1206,2.9856-1.0692-0.58395,0.341-2.5576,0.9322-2.9856,1.0692z"/>
<path fill="#90104f" d="m7.5916,1041.3c-1.5724,0.2845-1.8743-0.7872-1.8743-0.7872-1.3748,0.5116-2.8898,1.2096-3.8757,1.2096-0.98598,0.1-1.8416-0.5-1.8416-1.3,0-0.854,1.9967-1.5,3-1.5s2.1408,0.4418,3.6385,0.716c-1.1853-0.2997-2.5891-1.8962-2.1662-2.68,0.26944-0.4993,0.93487-0.7067,2.1741-0.3745,1.4526,0.3896,2.0756,2.4989,3.1471,3.5167,0.3267,0.3103,1.075,0.4896,1.075,0.4896s-1.7045,0.5187-3.277,0.8032z"/>
<path fill="#d876a7" d="m5.4541,1039.8c-1.4668-0.492-2.9525-0.8202-4.1073-0.2543-0.52746,0.2585-0.57894,0.8227-0.3423,0.9692,0.018482,0.012,0.039164,0.021,0.062093,0.029,0.19172,0.063,0.53768-0.023,1.0445-0.3567,0.93387-0.6217,3.343-0.3868,3.343-0.3868z"/>
<path fill="#d876a7" d="m7.879,1039c-0.023033-0.6092-0.022774-1.5507-1.3728-2.0547-0.55944-0.2088-0.95772-0.3042-1.1615,0.1418-0.17215,0.3765,0.69635,0.7495,1.2621,0.7519,1.112,0,1.2723,1.161,1.2723,1.161z"/>
<path fill="#8d094a" d="m5.4132,1041.8c-0.85459,0.048-0.90138,0.3706-1.1935,0.9521-0.11531,0.2295-0.18202,0.5505,0.16513,0.7392,0.32824,0.1784,0.58101-0.2237,0.58006-0.5528-0.00145-0.5164,0.28532-0.7227,0.44834-1.1385z"/>
<path fill="#8f0f4e" d="m10.011,1040.2c-0.36445-0.3101-0.79149-0.7398-0.59684-1.3249,0.13599-0.4087,0.40213-0.4096,0.5624-0.3438,0.20583,0.085,0.36758,0.3572,0.25596,0.5888-0.16891,0.3506-0.19765,0.7429-0.22152,1.0799z"/>
<path d="m108.62,346.56a1.625,1.8125,0,1,1,-3.25,0,1.625,1.8125,0,1,1,3.25,0z" fill-rule="evenodd" transform="matrix(0.1027679,-0.00634967,0.01050396,0.17019163,-4.7323163,980.68868)" fill="#d876a7"/>
<path fill="#d876a7" d="m11.959,1039.7c0.0087-0.1491,1.0289-0.6331,1.2099-0.1795,0.01837,0.1792-1.2264,0.2728-1.2099,0.1795z"/>
<path fill="url(#linearGradient5517-7)" d="m15.609,1050c0.2522,0.01-0.61894,0.62-0.93079,0.6237-2.9369,0.034-2.6779-3.679-2.8708-4.3349,0.45462,1.325,0.76063,2.447,1.2471,3.4702,0.10463,0.22,2.188,0.2303,2.5544,0.241z"/>
<path style="color:#000000;" d="m1.8783,5.8669a0.34724,0.34724,0,1,1,-0.69448,0,0.34724,0.34724,0,1,1,0.69448,0z" fill-rule="nonzero" transform="translate(-0.97069347,1036.2123)" fill="#90104f"/>
<path style="color:#000000;" d="m1.6967,4.7976a0.20124,0.20124,0,1,1,-0.40248,0,0.20124,0.20124,0,1,1,0.40248,0z" fill-rule="nonzero" transform="translate(-0.73393926,1036.1963)" fill="#d876a7"/>
<path style="color:#000000;" d="m1.6967,4.7976a0.20124,0.20124,0,1,1,-0.40248,0,0.20124,0.20124,0,1,1,0.40248,0z" fill-rule="nonzero" transform="translate(3.0304574,1038.3271)" fill="#d876a7"/>
<path style="color:#000000;" d="m1.8783,5.8669a0.34724,0.34724,0,1,1,-0.69448,0,0.34724,0.34724,0,1,1,0.69448,0z" fill-rule="nonzero" transform="translate(9.1781829,1031.8244)" fill="#90104f"/>
<g id="g6036" fill-rule="nonzero" transform="translate(5.5145613,-0.65637481)">
<path style="color:#000000;" fill="#339062" d="m1.7857,7.1049c0,0.32669-0.26483,0.59152-0.59152,0.59152s-0.59152-0.26483-0.59152-0.59152,0.26483-0.59152,0.59152-0.59152,0.59152,0.26483,0.59152,0.59152z" transform="matrix(1.6792453,0,0,1.6792453,-0.94508088,1031.6813)"/>
<path style="color:#000000;" fill="#77eab0" d="m1.7857,7.1049c0,0.32669-0.26483,0.59152-0.59152,0.59152s-0.59152-0.26483-0.59152-0.59152,0.26483-0.59152,0.59152-0.59152,0.59152,0.26483,0.59152,0.59152z" transform="translate(0,1036.3622)"/>
</g>
<use xlink:href="#g6036" transform="translate(3.314563,-0.64712898)" height="16" width="16" y="0" x="0"/>
<use xlink:href="#g6036" transform="translate(6.7238279,-2.1150069)" height="16" width="16" y="0" x="0"/>
<path fill="url(#linearGradient5524-5)" d="m13.1,1040c-0.0972-0.2329,0.63825-0.4519,0.77-0.1691,1.2408,2.6636,0.15474,3.8073-0.56201,4.7795,0.20392-1.3539,0.65009-2.5541-0.20798-4.6104z"/>
<path fill="url(#radialGradient5464)" d="m6.8326,1041.5-1.79,0.4618c0.28188,2.6212,1.2818,4.2871,4.7326,4.108l1.7303-0.1819c-0.66373-0.2025-4.5362-0.5215-4.673-4.3879z"/>
</g>
<g transform="matrix(1.0008327,0,0,1.0008327,2.0017255,34.000241)">
<path opacity="0.25" fill="#97bcc7" d="M13.5,3.81c2.7-1.41-15-5.25-13.2-3.24l4.79,6.86c-0.97,2.32-1.14,2.57-1.38,5.17l-3.4,1c-2.3,0.7,9.81,3.5,8.04,1.9l-3.22-2.5c1.02-2.4,0.89-2.8,1.22-5.32z"/>
<path opacity="0.25" fill="#97bcc7" d="M13.5,3.81c-6.21-0.43-8.95-1.59-13.2-3.24l4.79,6.86c-0.97,2.32-1.14,2.57-1.38,5.17l-3.4,1c-2.3,0.7,9.81,3.5,8.04,1.9l-3.22-2.5c1.02-2.4,0.89-2.8,1.22-5.32z"/>
<path fill="url(#linearGradient3696-9)" d="M12.7,3.84,5.64,7.92,3.08,4.01z"/>
<path stroke-linejoin="miter" d="m10.3,0.656s-0.616,0.403-0.569,1.45" stroke="#2f621e" stroke-linecap="round" stroke-miterlimit="4" stroke-dasharray="none" stroke-width="0.28409332" fill="none"/>
<path d="m12.8,3.38c0,0.461-2.3,0.835-5.14,0.835s-5.14-0.374-5.14-0.835,2.3-0.835,5.14-0.835,5.14,0.374,5.14,0.835z" stroke="#decc00" stroke-miterlimit="4" stroke-width="0.38114291" fill="#ffd602"/>
<path fill="#a92e4f" d="m9.72,1.72s1.42-0.924,1.45,0.9c0,1.82-3.47,2.08-3.5,0.17-0.02-1.92,1.73-1.76,2.02-1.07z"/>
<path fill="#97bcc7" d="M7.57,0.99c-0.12-0.028-0.24-0.056-0.36-0.084-3.86-0.883-7.83-1.34-6.93-0.337l4.79,6.86c-0.97,2.32-1.14,2.57-1.38,5.17l-3.4,1c-2.3,0.7,9.81,3.5,8.04,1.9l-3.22-2.5c1.02-2.4,0.89-2.8,1.22-5.32l7.17-3.87c1.3-0.69-2.2-1.94-5.93-2.82zm-0.41,0.27c2.82,0.67,5.84,1.7,5.74,2.02s-3.19-0.2-6.01-0.86c-2.83-0.66-5.44-1.61-5.37-1.93,0.08-0.319,2.81,0.108,5.64,0.768zm-6.06-0.327s4.05,1.69,5.66,2.07c1.6,0.376,5.97,0.717,5.97,0.717l-3.45,1.87-3.6,2.02-2.24-3.56zm4.11,6.69c0.15,0.04,0.19,0.59,0.35,0.63s0.43-0.44,0.59-0.41c-0.43,1.76-0.74,3.76-1.45,5.46l2.49,1.8c1.25,1.1-7.8-0.9-6.14-1.4l2.98-0.5c0.17-1.8,0.51-3.97,1.18-5.58z"/>
<path stroke-linejoin="miter" d="m10.3,0.656s-0.616,0.403-0.569,1.45" stroke="#2f621e" stroke-linecap="round" stroke-miterlimit="4" stroke-dasharray="none" stroke-width="0.28409332" fill="none"/>
<path fill="#a92e4f" d="M8.96,1.23c-0.32-0.02-0.67,0.11-0.91,0.41l1.55,0.82,1.5-0.05c-0.1-1.52-1.37-0.71-1.37-0.71-0.11-0.25-0.42-0.44-0.77-0.47z"/>
</g>
<g transform="matrix(1.0044072,0,0,1.0044072,-0.17626839,50.911768)">
<path fill="#d0c05d" d="M2.67,3.65,1.61,15.1c2.64,1.18,7.48,1.21,9.85,0.0311l-2.03-11.6c-2.27,0.66-4.54,0.49-6.8,0.15z"/>
<path d="m3170,156-9.14,174-36-7.14,17.7-170z" clip-path="url(#clipPath6154)" transform="matrix(0.06214346,0,0,0.06214314,-193.14808,-6.3851163)" fill="#968a46"/>
<path d="m3240,156,24.6,174,31.4-8.29-30.9-169z" clip-path="url(#clipPath6158)" transform="matrix(0.06214346,0,0,0.06214314,-193.14808,-6.3851163)" fill="#968a46"/>
<path fill="#524715" d="m4.06,5.55s-0.245,2.82-0.16,2.98c0.0415,0.0793,0.266-0.0541,0.266,0.0355,0,0.247-0.408,5.4-0.408,5.4l0.408-0.0178s0.144-5.13,0.142-5.58c-0.000624-0.0947-0.243,0.0851-0.284,0-0.0753-0.155,0.0355-2.82,0.0355-2.82z"/>
<path fill="#524715" d="m8.09,8c0.0451-0.0306,0.888,3.95,1.1,6.02l-0.266,0.000003c-0.13-1.8-0.83-6-0.83-6z"/>
<path d="m3130,314c53.9,20.6,106,17.4,156,0.8l11.6,39.2-39.6,21.2-65.6,6.8-54-5.2-21.2-17.2,1.2-24.8z" clip-path="url(#clipPath6128)" transform="matrix(0.06214346,0,0,0.06214314,-193.14808,-6.3851163)" fill="#52686e"/>
<path d="m3190,318-1.67,40c23.5,3.17,44.5,2.76,64.4-0.185l-10-48z" clip-path="url(#clipPath6138)" transform="matrix(0.06214346,0,0,0.06214314,-193.14808,-6.3851163)" fill="#688187"/>
<path fill="#524715" d="M8.21,4.69c0.11,1.22,0.4,3.59,0.55,3.59,0.12,0-0.28-2.41-0.39-3.62z"/>
<path fill="#524715" d="M5.07,4.62c-0.151,0.668-0.125,2.14,0,2.1,0.102-0.0389-0.0106-1.45,0.231-2.13z"/>
<path fill="#524715" d="M3.11,12s0.554-4.8,0.479-4.97c-0.04-0.09-0.29-0.11-0.28-0.2,0.01-0.25,0.26-2.34,0.26-2.34l-0.23-0.26s-0.213,2.25-0.241,2.7c-0.00559,0.0945,0.23,0.268,0.266,0.356,0.065,0.159-0.256,4.71-0.256,4.71z"/>
<path fill="#688187" d="M9.1,6.18,9.42,5.49c2.98-1.41,5.78-1.45,6.08,2.63,0.2,3.98-3.1,4.98-6.18,3.08l0.17-0.5c3.31,0.3,5.31,0.4,5.11-2.44-0.3-2.96-3-3.1-5.5-2.08z"/>
<path fill="#52686e" d="m9.1,6.19,0.071,0.906c2.03-1.07,4.93-0.62,4.93,1.55,0.1,2.35-0.9,3.65-4.78,2.55l0.0178,0.728c4.16,1.2,6.16,0.3,5.66-3.6-0.3-2.62-2.3-4.28-5.9-2.11z"/>
<path fill-rule="evenodd" fill="#5c552b" d="M2.69,3.66c1.87-0.34,4.43-0.38,6.76-0.16l-0.44,1.2-5.86-0.03z"/>
<path d="m-568,1880c100,25.4,249,16.2,327-3l-22-60-294,10z" clip-path="url(#clipPath6206)" transform="matrix(0.02361162,0,0,0.0236115,15.688875,-39.604255)" fill="#ac9a4c"/>
<path stroke-linejoin="round" d="M2.94,2.09c-0.85-0.37-1.4,0.85-0.75,1.26-1.78,0.47-2.05,1.91-1.38,1.92-0.66,0.91,0.189,1.63,0.715,1.09,0,1.07,1.01,1.17,1.29,0.53,0.41,0.62,1.47-0.22,0.54-1.62,0.7,1.09,1.69,0.12,1.69-0.65,0.12,0.73,0.42,1.21,1.5,0.55-0.28,1.72,1.16,1.73,1.21,1.09,0.25,0.59,1.46,0.35,1.12-0.53,1.13,0.73,1.93-0.78,1.13-1.31,0.7,0.16,1.3-0.43,0.3-1.95,0.7-0.54,0.2-0.98-1.19-0.23,1.49-0.71,0.29-2.34-0.58-1.27-0.07-0.806-1.35-0.811-1.44,0.199-0.22-0.945-1.41-0.57-1.34,0.07-0.52-0.49-0.63-0.05-0.88,0.87-0.03-0.61-0.16-1.05-0.72-0.66-0.4-0.809-2.09-0.41-1.21,0.64z" stroke-opacity="0.51832461" fill-rule="evenodd" stroke="#cfbd5c" stroke-miterlimit="4" stroke-dasharray="none" stroke-width="0.59736723000000003" fill="#f0e49c"/>
</g>
<path d="m3.2009,75.455,0.76231,6.7458c0.097752,0.83689,0.31695,1.5252,1.4792,1.538l4.568,0.05334c1.1622,0.01291,1.6088-0.22816,1.7838-1.4403l0.98719-6.8976c-0.10397-1.4191-9.0187-1.787-9.5817,0z" fill-opacity="0.43921569" stroke="#97bcc7" stroke-linecap="round" stroke-miterlimit="4" stroke-dasharray="none" stroke-width="0.39948294" fill="#96bbc6"/>
<path d="m5.7517,73.21c0.76671,0.0034,0.57672-4.6878,0.57672-4.6878s0.63888-0.18736,1.6205-0.18736,1.6205,0.21911,1.6205,0.21911-0.63477,4.652,0.63037,4.6312c1.2649-0.02155,2.7088,1.4936,2.5954,2.2793l-0.99452,6.8947c-0.17486,1.2122-0.6251,1.4537-1.7873,1.4409l-4.5736-0.051c-1.1622-0.013-1.3786-0.706-1.4765-1.542l-0.7459-6.386c-0.1419-1.215,1.7665-2.613,2.5332-2.609z" fill-opacity="0.43921569" stroke="#97bcc7" stroke-linecap="round" stroke-miterlimit="4" stroke-dasharray="none" stroke-width="0.39948294" fill="#96bbc6"/>
<path fill-opacity="0.62780265" fill="#FFF" d="m8.625,69.627,0.62158-0.0254s-0.5773,2.9369,0.062158,3.7586c0.63946,0.82319,2.3001,0.91462,2.3001,0.91462l0.09324,1.0671s-2.6455-0.50422-3.3571-1.5752c-0.7109-1.072,0.2799-4.141,0.2799-4.141z"/>
<path d="M4.2271,83.065c0.1443-0.223,0.4653-0.381,1.3179-0.385l4.3686-0.02082c0.97312-0.0044,1.4208,0.06847,1.6293,0.40594" stroke="#97bcc7" stroke-linecap="round" stroke-miterlimit="4" stroke-dasharray="none" stroke-width="0.39948294" fill="none"/>
<path d="m3.5234,75.631c0.17601,0.22265,0.56704,0.38122,1.607,0.38509l5.3274,0.02082c1.1866,0.0044,1.7325-0.06847,1.9864-0.40594" stroke="#97bcc7" stroke-linecap="round" stroke-miterlimit="4" stroke-dasharray="none" stroke-width="0.39948294" fill="none"/>
<path d="m5.0187,76.465,5.8639,0c0.37324,0,0.72508,0.24937,0.67377,0.55068l-0.76055,4.4465c-0.05154,0.3014-0.30053,0.55068-0.67377,0.55068h-4.5679c-0.37324,0-0.63712-0.24752-0.67377-0.55068l-0.5374-4.446c-0.03665-0.30319,0.30053-0.55068,0.67377-0.55068z" stroke-miterlimit="4" stroke-width="0" fill="#f9f9f9"/>
<path fill="#c4a7fd" d="m6.1035,68.328c0.71833-0.24249,2.6531-0.59863,3.6826,0,0.11262,0.75886,0,3.3922,0,3.3922-1.4264,0.40981-2.5669,0.38539-3.7734-0.03812z"/>
<path stroke-linejoin="round" d="m6.1035,68.99c1.8589,0.42291,3.7177,0.0012,3.7177,0.0012" stroke-opacity="0.61176471" stroke="#b56cf2" stroke-linecap="butt" stroke-miterlimit="4" stroke-dasharray="none" stroke-width="0.64716238" fill="none"/>
<path fill="#e6e6e6" d="m9.2355,70.578c0,0.61065-0.60526,1.1053-1.3514,1.1053-0.74656,0-1.3514-0.49507-1.3514-1.1053,0-0.61065,0.60526-1.1053,1.3514-1.1053,0.74656,0,1.3514,0.49507,1.3514,1.1053z"/>
<path stroke-linejoin="round" d="m6.1035,68.647c1.8589,0.42291,3.7177,0.0013,3.7177,0.0013" stroke-opacity="0.61176471" stroke="#b56cf2" stroke-linecap="butt" stroke-miterlimit="4" stroke-dasharray="none" stroke-width="0.64716238" fill="none"/>
<path d="m3.2009,92.455,0.76231,6.7458c0.097752,0.83689,0.31695,1.5252,1.4792,1.538l4.568,0.0533c1.1622,0.0129,1.6088-0.22816,1.7838-1.4403l0.9872-6.8976c-0.10397-1.4191-9.0187-1.787-9.5817,0z" fill-opacity="0.80269057" stroke="#784421" stroke-linecap="round" stroke-miterlimit="4" stroke-dasharray="none" stroke-width="0.39948294" fill="#502d16"/>
<path d="m5.7517,90.21c0.76671,0.0034,0.57672-4.6878,0.57672-4.6878s0.63888-0.18736,1.6205-0.18736,1.6205,0.21911,1.6205,0.21911-0.63477,4.652,0.63037,4.6312c1.2649-0.02155,2.7088,1.4936,2.5954,2.2793l-0.99452,6.8947c-0.17486,1.2122-0.6251,1.4537-1.7873,1.4409l-4.5739-0.0508c-1.1619-0.01-1.3783-0.71-1.4762-1.543l-0.7459-6.386c-0.1419-1.215,1.7665-2.613,2.5332-2.609z" fill-opacity="0.43921569" stroke="#784421" stroke-linecap="round" stroke-miterlimit="4" stroke-dasharray="none" stroke-width="0.39948294" fill="#d38d5f"/>
<path d="m8.625,86.627,0.62158-0.0254s-0.5773,2.9369,0.062158,3.7586c0.63946,0.82319,2.3001,0.91462,2.3001,0.91462l0.09323,1.0671s-2.6455-0.50422-3.3571-1.5752c-0.711-1.071,0.27974-4.1398,0.27974-4.1398z" fill-opacity="0.62780265" fill="#FFF"/>
<path d="m4.2271,100.06c0.14434-0.22266,0.4653-0.38122,1.3179-0.38509l4.3686-0.02083c0.97312-0.0044,1.4208,0.06847,1.6293,0.40594" stroke="#784421" stroke-linecap="round" stroke-miterlimit="4" stroke-dasharray="none" stroke-width="0.39948294" fill="none"/>
<path d="m3.5234,92.631c0.17601,0.22266,0.56704,0.38122,1.607,0.38509l5.3274,0.02083c1.1866,0.0044,1.7325-0.06847,1.9864-0.40594" stroke="#784421" stroke-linecap="round" stroke-miterlimit="4" stroke-dasharray="none" stroke-width="0.39948294" fill="none"/>
<path d="m5.0187,93.465,5.8639,0c0.37324,0,0.72508,0.24937,0.67377,0.55068l-0.76055,4.4465c-0.05154,0.3014-0.30053,0.55068-0.67377,0.55068h-4.5679c-0.37324,0-0.63712-0.24752-0.67377-0.55068l-0.5374-4.446c-0.03665-0.30319,0.30053-0.55068,0.67377-0.55068z" stroke-miterlimit="4" stroke-width="0" fill="#000"/>
<path d="m6.1035,85.328c0.71833-0.24249,2.6531-0.59863,3.6826,0,0.11262,0.75886,0,3.3922,0,3.3922-1.4264,0.40981-2.5669,0.38539-3.7734-0.03812z" fill="#333"/>
<path stroke-linejoin="miter" d="m6.1035,85.585c1.8589,0.42291,3.7177,0.0013,3.7177,0.0013" stroke-opacity="0.6098655" stroke="#000" stroke-linecap="butt" stroke-miterlimit="4" stroke-dasharray="none" stroke-width="0.64769155" fill="none"/>
<path stroke-linejoin="round" d="m6.1035,85.99c1.8589,0.42291,3.7177,0.0013,3.7177,0.0013" stroke-opacity="0.6098655" stroke="#000" stroke-linecap="butt" stroke-miterlimit="4" stroke-dasharray="none" stroke-width="0.64716238" fill="none"/>
<path d="m9.2355,87.578c0,0.61065-0.60526,1.1053-1.3514,1.1053-0.74656,0-1.3514-0.49507-1.3514-1.1053,0-0.61065,0.60526-1.1053,1.3514-1.1053,0.74656,0,1.3514,0.49507,1.3514,1.1053z" fill="#000"/>
<path stroke-linejoin="round" d="M31.2,0.25,28.5,3l2,2.5,2-1.5,0.25,2.5-2.5,2.5-3.5-0.5-3.25,2.5,1.5,2.5-3.5,2.25-2.25-1,2.25-2.5-1.25-1.75-3,1,1-3.5,2.25-1,2,1.5,3-2-0.4-3.13,2.35-2.72z" fill-rule="nonzero" stroke="#868b91" stroke-linecap="round" stroke-miterlimit="4" stroke-dasharray="none" stroke-width="0.5" fill="#d4d6d8"/>
<g transform="matrix(0.19722299,0,0,0.19377788,18.001732,17)">
<g id="g3178">
<g id="g3171">
<path fill="#fdc240" d="m2.39,0.00000107,6.59,0,0,18.9-6.44,0c-3.54,0.1-3.19-18.9-0.15-18.9z"/>
<path d="m-1550,29400,734,0,0,296-734,0z" fill-rule="nonzero" clip-path="url(#clipPath13802-2)" transform="matrix(0.01655737,0,0,0.02095265,23.906422,-613.01344)" fill="#ffdc84"/>
<path fill-rule="nonzero" fill="#cb8b27" d="m11.2,9.42c0,5.2-1.01,9.47-2.26,9.47s-2.28-4.26-2.28-9.47c0-5.2,1.02-9.42,2.28-9.42,1.25,0,2.26,4.22,2.26,9.42z"/>
</g>
<path fill-rule="nonzero" fill="#deb040" d="m9.28,6.34,50.7,0,0,6.48-50.7,0c-1.89-1.31-1.81-5.43,0-6.48z"/>
<use xlink:href="#g3171" transform="translate(54.706452,0)" height="82.597992" width="65.965309" y="0" x="0"/>
</g>
<use xlink:href="#g3178" transform="translate(0,63.668369)" height="82.597992" width="65.965309" y="0" x="0"/>
<path fill-rule="nonzero" fill="#d2dcf7" d="m12.8,6.1c-2.39,3.02-4.49,13.4-0.288,19.3,6.08,8.5,15.3,25.8,0.072,42.7-1.79,1.99-1.75,6.32,0.35,8.8,10.1,1.92,26.2,0.215,40.9-0.428,0.13,0-1.01-7.22,1.09-11.3,2.67-5.26,7.34-10.3,6.23-22.4-0.399-4.36-1.5-9.14-3.15-12.4-2.5-5-4.6-8.6-6.6-13-2.4-5.4-0.4-8.67,1.4-11.1-5-2.02-15.6-3.77-40-0.24z"/>
<path stroke-linejoin="round" d="m18.8,14.2c1.76-2.55,5.64-2.35,7.7-0.778,2.16,1.64,4.44,1.89,6.83,0.0536,2.52-1.94,6.04-0.494,8.03,1.44,0.562,0.549,3.43,1.12,4.21,1.38" stroke="#8287a4" stroke-linecap="round" stroke-miterlimit="4" stroke-dasharray="none" stroke-width="2.55763841" fill="none"/>
<path stroke-linejoin="round" d="m23.8,31.1c1.13-1.11,2.49-1.05,3.59,0.891,1.09,1.92,4.16-3.09,6.03,0.136,1.49,2.56,5.73,1.14,7.4-0.122,2.55-1.92,2.78-0.0683,5.09,0.0358l2.35,0.106" stroke="#8287a4" stroke-linecap="round" stroke-miterlimit="4" stroke-dasharray="none" stroke-width="2.55763841" fill="none"/>
<path stroke-linejoin="round" d="m27.4,49.9c1.51,1.19,3.46,3.61,4.91,0.477,0.974-2.11,2.93-1.91,4.56,0.0762,2.79,3.41,7.53,0.0808,8.87-0.71,2.43-1.43,3.27-0.714,3.94,1.84,0.207,0.786,1.04,1.41,1.98,1.49" stroke="#8287a4" stroke-linecap="round" stroke-miterlimit="4" stroke-dasharray="none" stroke-width="2.55763841" fill="none"/>
<path stroke-linejoin="round" d="m19.5,66.5c1.85-1.59,4.76-2.26,7.84-1.11,3.29,1.23,4.61-1.18,6.81-1.55,4.46-0.746,1.83,3.36,4.31,2.74,1.98-0.499,2.34-1.46,5.87-2.08,1.63-0.287,2.09,1.42,4,1.62" stroke="#8287a4" stroke-linecap="round" stroke-miterlimit="4" stroke-dasharray="none" stroke-width="2.55763841" fill="none"/>
</g>
<g transform="matrix(0.01588469,0,0,0.0158891,18.527447,115.21967)">
<path stroke-linejoin="miter" style="color:#000000;" d="m607.34-325.64c-211.93,0-142.59,244.57-102.03,430.86,15.729,72.239,68.277,51.806,76.179,21.523,15.38-58.929,87.72-50.31,137.16-67.603,116.77-40.839,98.31-181.32,92.53-229.45-5.7827-48.128-60.294-85.437-95.941-111.66-34.298-25.226-64.044-43.679-107.89-43.679z" stroke-dashoffset="0" stroke="#c11a50" stroke-linecap="butt" stroke-miterlimit="4" stroke-dasharray="none" stroke-width="25.57963943" fill="#ff185a"/>
<path stroke-linejoin="miter" style="color:#000000;" d="m158.31-570.58c-11.651,17.03-80.576-178.9-93.864-235.79-5.6982-24.397,144.44-28.249,137.38-5.5046-18.081,58.287-46.968,255.27-22.383,240.82z" fill-rule="nonzero" stroke-dashoffset="0" stroke="#9137ab" stroke-linecap="butt" stroke-miterlimit="4" stroke-dasharray="none" stroke-width="25.57963943" fill="#c247d5"/>
<path stroke-linejoin="miter" style="color:#000000;" d="m401.74-407.8a83.459,69.461,43.231,1,1,-151.68,0.959,83.459,69.461,43.231,0,1,151.68,-0.959z" fill-rule="nonzero" stroke-dashoffset="0" stroke="#9137ab" stroke-linecap="butt" stroke-miterlimit="4" stroke-dasharray="none" stroke-width="25.57963753" fill="#c247d5"/>
<path stroke-linejoin="miter" style="color:#000000;" d="m331.61-354.48a84.787,78.305,23.934,1,1,-167.51,-8.8179,84.787,78.305,23.934,0,1,167.51,8.8179z" fill-rule="nonzero" stroke-dashoffset="0" stroke="#9137ab" stroke-linecap="butt" stroke-miterlimit="4" stroke-dasharray="none" stroke-width="25.57963753" fill="#c247d5"/>
<path stroke-linejoin="miter" style="color:#000000;" d="m443.95-270.56a84.787,78.305,23.934,1,1,-167.51,-8.8179,84.787,78.305,23.934,0,1,167.51,8.8179z" fill-rule="nonzero" stroke-dashoffset="0" stroke="#9137ab" stroke-linecap="butt" stroke-miterlimit="4" stroke-dasharray="none" stroke-width="25.57963753" fill="#c247d5"/>
<path stroke-linejoin="miter" style="color:#000000;" d="m502.14-410.48a83.459,69.461,43.231,1,1,-151.68,0.959,83.459,69.461,43.231,0,1,151.68,-0.959z" fill-rule="nonzero" stroke-dashoffset="0" stroke="#9137ab" stroke-linecap="butt" stroke-miterlimit="4" stroke-dasharray="none" stroke-width="25.57963753" fill="#c247d5"/>
<path stroke-linejoin="miter" style="color:#000000;" d="m509.13-266.82a79.992,65.523,58.338,0,1,-137.14,1.7247,79.992,65.523,58.338,1,1,137.14,-1.7247z" fill-rule="nonzero" stroke-dashoffset="0" stroke="#9137ab" stroke-linecap="butt" stroke-miterlimit="4" stroke-dasharray="none" stroke-width="25.57963753" fill="#c247d5"/>
<path stroke-linejoin="miter" style="color:#000000;" d="m159.94-429.59a92.824,73.187,34.909,0,1,-171.4,-9.0228,92.824,73.187,34.909,0,1,171.4,9.0228z" fill-rule="nonzero" stroke-dashoffset="0" stroke="#9137ab" stroke-linecap="butt" stroke-miterlimit="4" stroke-dasharray="none" stroke-width="25.5935688" fill="#c247d5"/>
<path stroke-linejoin="miter" style="color:#000000;" d="m430.32-533.17a98.111,92.005,31.949,0,1,-192.88,-10.153,98.111,92.005,31.949,0,1,192.88,10.153z" fill-rule="nonzero" stroke-dashoffset="0" stroke="#9137ab" stroke-linecap="butt" stroke-miterlimit="4" stroke-dasharray="none" stroke-width="25.57963753" fill="#c247d5"/>
<path stroke-linejoin="miter" style="color:#000000;" d="M448.66,20.747a82.891,74.979,37.27,0,1,-159.78,-25.701,82.891,74.979,37.27,1,1,159.78,25.701z" fill-rule="nonzero" stroke-dashoffset="0" stroke="#9137ab" stroke-linecap="butt" stroke-miterlimit="4" stroke-dasharray="none" stroke-width="25.57963753" fill="#c247d5"/>
<path stroke-linejoin="miter" style="color:#000000;" d="m453.76-174.97c39.155,45.609,32.419,102.56-14.14,119.54-46.559,16.982-93.297-9.0638-132.45-54.673-39.155-45.609-32.419-102.56,14.14-119.54,46.559-16.982,93.297,9.0638,132.45,54.673z" fill-rule="nonzero" stroke-dashoffset="0" stroke="#9137ab" stroke-linecap="butt" stroke-miterlimit="4" stroke-dasharray="none" stroke-width="25.57963753" fill="#c247d5"/>
<path stroke-linejoin="miter" style="color:#000000;" d="m264.06-326.99a84.787,78.305,23.934,1,1,-167.51,-8.8179,84.787,78.305,23.934,0,1,167.51,8.8179z" fill-rule="nonzero" stroke-dashoffset="0" stroke="#9137ab" stroke-linecap="butt" stroke-miterlimit="4" stroke-dasharray="none" stroke-width="25.57963753" fill="#c247d5"/>
<path stroke-linejoin="miter" style="color:#000000;" d="m341.99-221.93a77.998,65.513,81.912,0,1,-131.56,-6.9257,77.998,65.513,81.912,1,1,131.56,6.9257z" fill-rule="nonzero" stroke-dashoffset="0" stroke="#9137ab" stroke-linecap="butt" stroke-miterlimit="4" stroke-dasharray="none" stroke-width="25.57963753" fill="#c247d5"/>
<path stroke-linejoin="miter" style="color:#000000;" d="M360.14,79.242a82.891,74.979,37.27,0,1,-159.78,-25.701,82.891,74.979,37.27,1,1,159.78,25.701z" fill-rule="nonzero" stroke-dashoffset="0" stroke="#9137ab" stroke-linecap="butt" stroke-miterlimit="4" stroke-dasharray="none" stroke-width="25.57963753" fill="#c247d5"/>
<path stroke-linejoin="miter" style="color:#000000;" d="m289.95-475.29a97.98,92.408,54.472,0,1,-188.65,-9.9309,97.98,92.408,54.472,1,1,188.65,9.9309z" fill-rule="nonzero" stroke-dashoffset="0" stroke="#9137ab" stroke-linecap="butt" stroke-miterlimit="4" stroke-dasharray="none" stroke-width="25.57963753" fill="#c247d5"/>
<path stroke-linejoin="miter" style="color:#000000;" d="M379.5-42.541a91.984,67.567,46.333,0,1,-159.9,-59.139,91.984,67.567,46.333,1,1,159.9,59.139z" fill-rule="nonzero" stroke-dashoffset="0" stroke="#9137ab" stroke-linecap="butt" stroke-miterlimit="4" stroke-dasharray="none" stroke-width="25.57963753" fill="#c247d5"/>
<path fill-rule="evenodd" fill="#fedc55" d="m571.65-208.28c-6.2862,20.389-12.638,38.358-24.837,53.688-9.0762,11.405-17.171,13.683-25.171,7.7149-9.4973-7.0878-13.012-21.401-7.5672-31.262,1.0608-1.9196,2.2642-3.9537,3.9073-5.3377,14.955-12.594,31.654-21.436,53.668-24.803z"/>
<path fill-rule="evenodd" fill="#fedc55" d="m740.62-131.19c-6.2862,20.389-12.638,38.358-24.837,53.688-9.0762,11.405-17.171,13.683-25.171,7.7149-9.4973-7.0878-13.013-21.401-7.5672-31.262,1.0608-1.9196,2.2643-3.9537,3.9073-5.3377,14.955-12.594,31.654-21.436,53.668-24.803z"/>
<path fill-rule="evenodd" fill="#fedc55" d="m713.96-32.409c-6.2862,20.389-12.638,38.358-24.837,53.688-9.0761,11.405-17.171,13.683-25.171,7.7149-9.4973-7.0878-13.012-21.401-7.5672-31.262,1.0608-1.9196,2.2643-3.9537,3.9073-5.3377,14.956-12.594,31.654-21.436,53.668-24.803z"/>
<path fill-rule="evenodd" fill="#fedc55" d="m589.42-15.799c-6.2863,20.389-12.638,38.358-24.837,53.688-9.0761,11.405-17.171,13.683-25.171,7.7149-9.4973-7.0878-13.012-21.401-7.5672-31.262,1.0608-1.9196,2.2643-3.9537,3.9073-5.3377,14.956-12.594,31.654-21.436,53.668-24.803z"/>
<path fill-rule="evenodd" fill="#fedc55" d="m607.97-108.25c-6.2862,20.389-12.638,38.358-24.837,53.688-9.0761,11.405-17.171,13.683-25.171,7.7149-9.4973-7.0878-13.012-21.401-7.5672-31.262,1.0608-1.9196,2.2643-3.9537,3.9073-5.3377,14.956-12.594,31.654-21.436,53.668-24.803z"/>
<path style="color:#000000;" d="m665.23-392.64-63.608-52.703,40.563,110.4c-31.486-27.571-69.206-36.486-109.01-39.172l102.82,82.629c-12.099,34.239-48.358,63.534-75.765,93.129,48.621,6.1279,95.12,6.342,135.25-11.189l77.564,112.34-3.554-106.06s58.095,56.178,76.386,78.849c2.9133-35.668-40.946-151.06-102.07-166.97z" fill-rule="nonzero" stroke="#54a540" stroke-miterlimit="4" stroke-dasharray="none" stroke-width="19.78189087" fill="#6fc347"/>
<path stroke-linejoin="miter" style="color:#000000;" d="m696.44-239.75c-25.567,19.889-44.956-196.68-15.473-187.09,66.494,21.622,78.618,35.171,97.472,64.038,26.157,40.049-31.015,83.39-81.998,123.05z" fill-rule="nonzero" stroke-dashoffset="0" stroke="#54a540" stroke-linecap="butt" stroke-miterlimit="4" stroke-dasharray="none" stroke-width="25.57963943" fill="#6fc347"/>
<path fill-rule="evenodd" fill="#fedc55" d="m684.54-187.27c-6.2862,20.389-12.638,38.358-24.837,53.688-9.0762,11.405-17.171,13.683-25.171,7.7149-9.4973-7.0878-13.013-21.401-7.5672-31.262,1.0608-1.9196,2.2643-3.9537,3.9073-5.3377,14.955-12.594,31.654-21.436,53.668-24.803z"/>
</g>
<g transform="matrix(0.01571757,0,0,0.01571757,21.188919,64.57782)">
<path id="path3917" style="color:#000000;" fill="#000" d="M0,3,0,6,8,3,16,6,16,3,8-1.9591E-8z" transform="matrix(63.623066,0,0,63.623066,-266.5119,-863.86254)"/>
<use xlink:href="#path3917" transform="translate(0,445.36145)" height="16" width="16" y="0" x="0"/>
</g>
<g transform="matrix(0.01571757,0,0,0.01571757,21.188919,80.57782)">
<path id="path6270" style="color:#000000;" fill="#000" d="M0,3,0,6,8,9,16,6,16,3,8,6z" transform="matrix(63.623066,0,0,63.623066,-266.5119,-863.86254)"/>
<use xlink:href="#path6270" transform="translate(0,445.36148)" height="119" width="34" y="0" x="0"/>
</g>
<g transform="matrix(0.01571757,0,0,0.01571757,21.188919,99.57782)" fill="#000">
<path style="color:#000000;" d="m51.603-863.86-127.25,0,0,699.85-95.435-127.25-95.435,0,254.49,318.12,254.49-318.12-95.435,0.00001-95.435,127.25z"/>
<path style="color:#000000;" d="m306.1-545.75,222.68,318.12,222.68-318.12z"/>
</g>
<path id="path5316-3" stroke-linejoin="round" d="m5.5379,95.117c0.22286,0.36146,0.49108,0.34192,0.70803-0.29015,0.21497-0.62523,0.82045,1.0062,1.1893-0.04429,0.29386-0.83364,1.1301-0.37123,1.4595,0.03973,0.50292,0.62523,0.54828,0.02223,1.0039-0.0116l0.46347-0.03451" stroke="#FFF" stroke-linecap="round" stroke-miterlimit="4" stroke-dasharray="none" stroke-width="0.8" fill="none"/>
<path id="path3230" stroke-linejoin="round" d="m5.6401,80.583c0.22286,0.36146,0.49108,0.34192,0.70803-0.29015,0.21497-0.62523,0.82045,1.0062,1.1893-0.04429,0.29386-0.83364,1.1301-0.37123,1.4595,0.03973,0.50292,0.62523,0.54828,0.02223,1.0039-0.0116l0.46347-0.03451" stroke="#9696c3" stroke-linecap="round" stroke-miterlimit="4" stroke-dasharray="none" stroke-width="0.5" fill="none"/>
<use xlink:href="#path3230" transform="translate(0,-2.0501602)" height="119" width="34" y="0" x="0"/>
<use xlink:href="#path5316-3" transform="translate(0,2.4289942)" height="119" width="34" y="0" x="0"/>
<path d="m4.6841,109.45c0.3356,2.4481,0.25399,6.0796,0.25399,6.0796,0.085685,1.3873,1.5403,2.1319,3.4274,2.2033,1.8871,0.0655,3.2846-0.0893,3.4376-2.1013,0,0-0.10303-4.2434,0.20401-6.3346,0.30704-2.0911,1.1425-0.51717,1.3261-5.3349,0.05223-2.4991-9.9864-2.0707-10.078,0,0.00694,4.2638,1.1017,3.0398,1.4383,5.4777z" fill-opacity="0.14136125" stroke="#97bcc7" stroke-linecap="round" stroke-miterlimit="4" stroke-dasharray="none" stroke-width="0.47167268" fill="#96bbc6"/>
<path d="m5.388,116.55c0.11833-0.36824,1.8871-0.65488,2.9174-0.65488,1.0201,0,3.0806,0.0965,3.254,0.65488" stroke="#97bcc7" stroke-linecap="round" stroke-miterlimit="4" stroke-dasharray="none" stroke-width="0.47167268" fill="none"/>
<path d="m3.307,104.21c0.18871,0.54879,3.1622,0.82829,4.7943,0.82829s4.8861,0.003,5.1615-0.82829" stroke="#97bcc7" stroke-linecap="round" stroke-miterlimit="4" stroke-dasharray="none" stroke-width="0.47167271" fill="none"/>
<path d="m3.3978,106.5c0.2948,1.4995,0.95988,0.60286,1.2853,2.9378,0.3356,2.4481,0.25501,5.7021,0.25501,5.7021,0.085685,1.3873,1.5199,2.5196,3.407,2.5808,1.8871,0.0655,3.2846-0.47943,3.4478-2.4889,0,0-0.08405-3.8456,0.22339-5.9266,0.29276-1.9891,0.24481-0.21421,1.2751-2.744-3.0602,0.75689-6.9058,1.1731-9.8844-0.0637z" fill-opacity="0.89411765" fill="#f7d433"/>
<path stroke-linejoin="round" d="m13.069,106.56c-3.0398,1.6933-6.6304,1.7035-9.5172-0.0637,0,0-0.031826-0.79259,4.7331-0.79259s4.7943,0.85583,4.7943,0.85583z" stroke-opacity="0.31937172" fill-opacity="0.85786803" stroke="#be9e10" stroke-linecap="butt" stroke-miterlimit="4" stroke-dasharray="none" stroke-width="0.50000006" fill="#f7d433"/>
<path stroke-linejoin="round" opacity="0.4612069" style="color:#000000;" d="m7.726,110.7a0.23085,0.23085,0,1,1,-0.46116,0,0.23085,0.23085,0,1,1,0.46116,0z" stroke-opacity="0.73821992000000003" fill-rule="nonzero" fill-opacity="0.89411764999999999" stroke="#c0a011" stroke-linecap="butt" stroke-miterlimit="4" stroke-dasharray="none" stroke-width="0.10000001000000000" fill="#f7d433"/>
<path stroke-linejoin="round" opacity="0.4612069" style="color:#000000;" d="m6.6887,111.53a0.23085,0.23085,0,1,1,-0.46116,0,0.23085,0.23085,0,1,1,0.46116,0z" stroke-opacity="0.73821992000000003" fill-rule="nonzero" fill-opacity="0.89411764999999999" stroke="#c0a011" stroke-linecap="butt" stroke-miterlimit="4" stroke-dasharray="none" stroke-width="0.10000001000000000" fill="#f7d433"/>
<path stroke-linejoin="round" opacity="0.4612069" style="color:#000000;" d="m10.04,113.83a0.31487,0.31487,0,1,1,-0.62901,0,0.31487,0.31487,0,1,1,0.62901,0z" stroke-opacity="0.73821992000000003" fill-rule="nonzero" fill-opacity="0.89411764999999999" stroke="#c0a011" stroke-linecap="butt" stroke-miterlimit="4" stroke-dasharray="none" stroke-width="0.09999999000000000" fill="#f7d433"/>
<path stroke-linejoin="round" opacity="0.4612069" style="color:#000000;" d="m11.005,111.35a0.43251,0.43251,0,1,1,-0.86399,0,0.43251,0.43251,0,1,1,0.86399,0z" stroke-opacity="0.73821992000000003" fill-rule="nonzero" fill-opacity="0.89411764999999999" stroke="#c0a011" stroke-linecap="butt" stroke-miterlimit="4" stroke-dasharray="none" stroke-width="0.10000000000000001" fill="#f7d433"/>
<path stroke-linejoin="round" opacity="0.4612069" style="color:#000000;" d="m10.659,112.84a0.43251,0.43251,0,1,1,-0.86399,0,0.43251,0.43251,0,1,1,0.86399,0z" stroke-opacity="0.73821992000000003" fill-rule="nonzero" fill-opacity="0.89411764999999999" stroke="#c0a011" stroke-linecap="butt" stroke-miterlimit="4" stroke-dasharray="none" stroke-width="0.10000000000000001" fill="#f7d433"/>
<path d="m4.6841,109.45c0.3356,2.4481,0.25399,6.0796,0.25399,6.0796,0.085685,1.3873,1.5403,2.1319,3.4274,2.2033,1.8871,0.0655,3.2846-0.0893,3.4376-2.1013,0,0-0.10303-4.2434,0.20401-6.3346,0.30704-2.0911,1.1425-0.51717,1.3261-5.3349,0.05223-2.4991-9.9864-2.0707-10.078,0,0.00694,4.2638,1.1017,3.0398,1.4383,5.4777z" stroke="#97bcc7" stroke-linecap="round" stroke-miterlimit="4" stroke-dasharray="none" stroke-width="0.50000006" fill="none"/>
<path stroke-linejoin="round" opacity="0.4612069" style="color:#000000;" d="m7.0692,109.99a0.43251,0.43251,0,1,1,-0.86399,0,0.43251,0.43251,0,1,1,0.86399,0z" stroke-opacity="0.73821992000000003" fill-rule="nonzero" fill-opacity="0.89411764999999999" stroke="#c0a011" stroke-linecap="butt" stroke-miterlimit="4" stroke-dasharray="none" stroke-width="0.10000000000000001" fill="#f7d433"/>
<g transform="matrix(0.79580852,0,0,0.79592938,17.041922,34.039518)">
<path d="M13.983,0.77122c-0.427,0.33318-0.824,0.83208-1.165,1.5286-3.8533,5.5518-11.706,10.551-12.164,11.078-0.27209,0.31288-0.83382,2.756-0.018893,4.5325l0.67292-0.31-0.2446,1.006c0.6711,0.836,1.8162,1.365,3.711,1.125,3.8553-6.828,12.632-10.427,12.632-10.427,5.587-3.3505,0.057-11.246-3.423-8.5326z" fill="#e7d8a2"/>
<path fill="#f3ecc7" d="m14.692,2.0062-1.9437,2.7511c0.05086,0.38075,0.13065,0.78265,0.25468,1.1878,0.478-0.4301,0.991-0.8716,1.537-1.3269-0.449-1.3111-0.104-2.193,0.152-2.612z"/>
<path fill="#f3ecc7" d="M12.756,2.3842c-3.8993,5.5387-11.646,10.47-12.102,10.994-0.27209,0.31288-0.83382,2.756-0.018893,4.5325l0.67292-0.31-0.2446,1.006c0.67103,0.83627,1.8162,1.3655,3.711,1.1252,0.61315-1.0859,1.4154-2.1457,2.3292-3.1549,1.2326-1.9509,1.5588-3.49,7.6081-7.9854-0.23973-0.20709-0.48609-0.46229-0.7386-0.77532-1.7662-2.1895-1.22-5.4027-1.22-5.4027,0.0012-0.00983,0.0015-0.018883,0.0027-0.028646z"/>
<path stroke-linejoin="miter" d="M13.983,0.77122c-0.427,0.33318-0.824,0.83208-1.165,1.5286-3.8533,5.5518-11.706,10.551-12.164,11.078-0.27209,0.31288-0.83382,2.756-0.018893,4.5325l0.67292-0.31-0.2446,1.006c0.6711,0.836,1.8162,1.365,3.711,1.125,3.8553-6.828,12.632-10.427,12.632-10.427,5.587-3.3505,0.057-11.246-3.423-8.5326z" stroke="#786b39" stroke-linecap="round" stroke-miterlimit="4" stroke-dasharray="none" stroke-width="0.52672142" fill="none"/>
<path stroke-linejoin="round" d="m12.751,2.4124s-0.54471,3.2151,1.2215,5.4047c1.7662,2.1895,3.3149,1.5378,3.3149,1.5378" stroke="#786b39" stroke-linecap="round" stroke-miterlimit="4" stroke-dasharray="none" stroke-width="0.52672142" fill="none"/>
<path stroke-linejoin="round" d="m15.239,8.9097,2.0304-1.3093,0.55572-0.43751c0.63022-0.49615,0.60323-3.5479-1.6314-4.2233l-1.6261,1.5385" stroke="#786b39" stroke-linecap="round" stroke-miterlimit="4" stroke-dasharray="none" stroke-width="0.37622958" fill="none"/>
<path stroke-linejoin="round" d="M16.061,5.3932,16.991,4.5113c0.185-0.1753-0.384,2.6637-0.991,0.8165-0.446-1.3542-0.46-1.7616,0.184-2.3736" stroke="#786b39" stroke-linecap="round" stroke-miterlimit="4" stroke-dasharray="none" stroke-width="0.37622958" fill="none"/>
<path stroke-linejoin="miter" d="m12.793,4.6846,2.0531-2.901c0.20804-0.29396,0.91203-1.139,1.87-0.72125l-0.39882,0.56218,0.79115-0.33544s0.79037,0.19585,2.3661,2.3189" stroke="#786b39" stroke-linecap="round" stroke-miterlimit="4" stroke-dasharray="none" stroke-width="0.37622958" fill="none"/>
<path stroke-linejoin="miter" d="m14.902,1.7214s-1.4346,1.407,0.20611,4.072l-0.71236,1.1041,1.0774-0.49821s0.96329,1.596,1.6114,1.3217" stroke="#786b39" stroke-linecap="round" stroke-miterlimit="4" stroke-dasharray="none" stroke-width="0.37622958" fill="none"/>
<path stroke-linejoin="round" d="M12.302,12.273c-4.7701-0.7-3.0881-6.1834-3.0881-6.1834l-3.4892,2.879s-1.682,5.4838,3.0879,6.1831z" stroke="#711e13" stroke-linecap="round" stroke-miterlimit="4" stroke-dasharray="none" stroke-width="0.40901032" fill="#b9311f"/>
<path stroke-linejoin="round" d="m565.38,680.96c0,6.8868-4.9967,12.47-11.16,12.47-6.1637,0-11.16-5.5829-11.16-12.47,0-6.8868,4.9967-12.47,11.16-12.47,6.1637,0,11.16,5.5829,11.16,12.47z" transform="matrix(0.22764817,-0.18783347,0.15090999,0.2281464,-221.46506,-39.929203)" stroke="#7c5911" stroke-linecap="round" stroke-miterlimit="4" stroke-dasharray="none" stroke-width="1.32782555" fill="#9a751f"/>
<path stroke-linejoin="round" d="m565.38,680.96c0,6.8868-4.9967,12.47-11.16,12.47-6.1637,0-11.16-5.5829-11.16-12.47,0-6.8868,4.9967-12.47,11.16-12.47,6.1637,0,11.16,5.5829,11.16,12.47z" transform="matrix(0.22764817,-0.18783347,0.15090999,0.2281464,-222.26982,-39.804564)" stroke="#7c5911" stroke-linecap="round" stroke-miterlimit="4" stroke-dasharray="none" stroke-width="1.32782555" fill="url(#linearGradient4548)"/>
<path stroke-linejoin="round" style="baseline-shift:baseline;block-progression:tb;color:#000000;direction:ltr;text-indent:0;text-align:start;text-transform:none;" d="M5.6775,10.259c0.3475-0.3123,1.15,0.203,1.3403,0.162,0.3193-0.068,0.3632-0.4425,0.2916-0.9055s-0.3253-0.8506-0.6627-0.7775c-0.3375,0.073,0.1073,0.7858-0.0828,0.819-0.1728,0.0301-0.8561-0.5724-1.3893-0.1325-0.5332,0.44-0.8753,1.9475-0.3063,3.0325,0.56898,1.0841,1.9704,1.5243,2.5036,1.0844,0.53323-0.43997,0.67226-0.71984,0.76272-0.90688,0.099527-0.20579,0.40866,0.43351,0.59565,0.07383,0.1871-0.36-0.0506-0.752-0.3073-1.071-0.7193-0.893-0.8787-0.303-0.7817,0.166,0.0969,0.468-0.5993,1.91-1.8467,0.455-0.5288-0.579-0.5658-1.368-0.117-1.999z" stroke-opacity="0.63157893" fill-opacity="0.09210528" stroke="#916e01" stroke-miterlimit="4" stroke-dasharray="none" stroke-width="0.53534299" fill="#ffac1f"/>
</g>
</svg>
